<?xml version="1.0" encoding="UTF-8"?>
<svg id="Layer_2" data-name="Layer 2" xmlns="http://www.w3.org/2000/svg" viewBox="0 0 1080 1080">
  <defs>
    <style>
      .cls-1 {
        fill: #fff;
      }

      .cls-2 {
        fill: #11b6b0;
      }

      .cls-3 {
        fill: #6150dc;
      }
    </style>
  </defs>
  <rect class="cls-1" width="1080" height="1080"/>
  <g>
    <g>
      <path class="cls-3" d="M925.85,583.96c-25.02-24.07-57.21-36.14-96.5-36.14-19.96,0-38.2,3.31-54.72,9.96-2,.81-3.53,2.48-4.24,4.51-9.07,25.95-18.33,51.83-27.64,77.02-12.44,33.85-26.1,68.87-40.58,104.03-.71,1.71-.78,3.65-.16,5.4,6.63,18.7,16.91,34.76,30.84,48.18,24.92,24.07,57.05,36.14,96.5,36.14s72.9-12.06,97.45-36.14c26.02-25.18,38.98-60.79,38.98-106.72s-13.33-80.44-39.93-106.25ZM775.78,733.88c-13.49-10.8-20.23-25.23-20.23-43.3s6.74-32.71,20.23-43.51c12.96-10.27,30.97-15.43,53.94-15.43s39.82,5.16,52.99,15.43c13.64,10.64,20.44,25.13,20.44,43.51s-6.64,32.66-19.96,43.3c-13.17,10.43-30.97,15.65-53.47,15.65s-40.82-5.22-53.94-15.65Z"/>
      <path class="cls-3" d="M751.38,547.61c3.63,0,6.17,3.59,4.98,7.02-.48,1.37-.95,2.73-1.44,4.09-1.37,3.95-2.79,7.9-4.16,11.85-7.53,21.33-15.17,42.4-22.86,63.32-10.27,27.92-21.28,56.47-33.08,85.6-1.79,4.53-9.01,22.28-10.48,25.81-12.97,31.42-25.46,59.82-37.51,85.25-.87,1.85-2.72,2.99-4.76,2.99h-62.67c-2.05,0-3.9-1.15-4.77-3.01-13.22-28.23-27.02-59.98-41.36-95.18-13.33-32.13-26.39-65.74-39.24-100.77l-9.96-26.9c-2.04-5.52-10.22-4.05-10.22,1.83v218.75c0,2.91-2.36,5.27-5.27,5.27h-64.09c-2.91,0-5.27-2.36-5.27-5.27v-218.89c0-5.88-8.18-7.35-10.22-1.83l-9.74,26.35c-12.01,32.76-25.13,66.37-39.19,100.77-14.55,35.66-28.51,67.64-41.83,95.88-.87,1.85-2.72,3-4.77,3h-62.72c-2.05,0-3.9-1.15-4.77-3.01-13.21-28.23-27.02-59.98-41.36-95.18-13.33-32.13-26.39-65.74-39.24-100.77-10.67-28.89-20.25-55.58-28.72-80.01-1.19-3.43,1.38-6.96,5-6.96h74.36c2.28,0,4.31,1.47,5.01,3.64l20.67,63.37c10.43,32.03,19.7,58.89,27.81,80.59,2.44,6.69,5.31,14.05,8.61,22.05,1.82,4.41,8.13,4.38,9.81-.09,6.84-18.26,16.13-44.13,27.89-77.59l30.18-88.4c.73-2.14,2.73-3.57,4.99-3.57h213.64c2.28,0,4.31,1.47,5.01,3.64l20.67,63.37c10.48,32.03,19.75,58.89,27.81,80.59,2.47,6.68,5.35,14.03,8.65,22.02,1.82,4.42,8.14,4.37,9.81-.1,6.81-18.26,16.11-44.12,27.9-77.55l30.18-88.4c.73-2.14,2.73-3.57,4.99-3.57h71.75Z"/>
    </g>
    <g>
      <path class="cls-3" d="M369.8,384.26c-1.37-36.98-18.28-74.85-42.4-99.08-31.13-31.34-73.59-38.72-111.2-38.72-20.28,0-39.19,2.16-54.15,3.85-17.94,2.03-32.94,5.44-44.05,8.47-2.25.61-3.78,2.67-3.78,5v262.84c0,2.87,2.32,5.19,5.19,5.19h94.58c49.15,0,87.07-11.48,113.89-34.4,28.08-24.18,42.09-59.42,42.09-105.77,0-1.58,0-4.11-.16-7.37ZM217.04,464.44h-22.15c-2.87,0-5.19-2.32-5.19-5.19v-135.1c0-2.85,2.3-5.17,5.15-5.19l23.82-.17c49.46,0,74.17,24.13,74.17,72.48s-25.28,73.17-75.8,73.17Z"/>
      <path class="cls-3" d="M540.18,334.66l-11.03,61.23c-.57,3.16-3.84,5.02-6.87,3.96-5.41-1.89-10.23-3.03-14.15-3.74-6.69-1.21-12.64-1.58-17.38-1.58s-8.38.37-10.06.58c-.93.1-1.81.22-2.62.34-2.54.38-4.38,2.58-4.38,5.15v126c0,2.88-2.33,5.21-5.21,5.21h-64.07c-2.88,0-5.21-2.33-5.21-5.21v-187.12c0-2.16,1.34-4.12,3.36-4.89,16.01-6.11,30.22-9.46,41.21-11.38,7.74-1.32,19.7-3.37,35.19-3.37,2.42,0,4.95.05,7.53.16,3.27.16,17.8.84,36.45,5.16,5.18,1.19,9.78,2.44,13.64,3.58,2.55.76,4.08,3.3,3.6,5.91Z"/>
      <path class="cls-2" d="M567.87,450.48c-6.64-5.74-14.54-8.59-23.7-8.59-9.64,0-17.75,2.95-24.39,8.85-7.16,6.32-10.75,14.85-10.75,25.55s3.58,19.81,10.75,25.81c6.32,5.9,14.49,8.85,24.39,8.85,8.53,0,16.38-2.95,23.49-8.85,7.43-6.48,11.17-15.12,11.17-25.81s-3.64-19.75-10.96-25.81Z"/>
    </g>
  </g>
</svg>