<?xml version="1.0" encoding="UTF-8"?>
<svg id="Layer_2" data-name="Layer 2" xmlns="http://www.w3.org/2000/svg" xmlns:xlink="http://www.w3.org/1999/xlink" viewBox="0 0 547.43 541.65">
  <defs>
    <style>
      .cls-1 {
        fill: url(#linear-gradient-2);
      }

      .cls-2 {
        fill: #fff;
      }

      .cls-3 {
        mask: url(#mask);
      }

      .cls-4 {
        fill: #11b6b0;
      }

      .cls-5 {
        fill: url(#radial-gradient-2);
      }

      .cls-5, .cls-6, .cls-7 {
        opacity: .2;
      }

      .cls-6 {
        fill: url(#radial-gradient-3);
      }

      .cls-8 {
        fill: #6251dd;
      }

      .cls-7 {
        fill: url(#radial-gradient);
      }

      .cls-9 {
        fill: url(#linear-gradient);
      }
    </style>
    <linearGradient id="linear-gradient" x1="-356.44" y1="361.77" x2="-356.44" y2="-31.52" gradientTransform="translate(679.7 47.88) scale(1.14 1.17)" gradientUnits="userSpaceOnUse">
      <stop offset=".1" stop-color="#fff" stop-opacity="0"/>
      <stop offset=".15" stop-color="#fff" stop-opacity=".13"/>
      <stop offset=".24" stop-color="#fff" stop-opacity=".39"/>
      <stop offset=".33" stop-color="#fff" stop-opacity=".61"/>
      <stop offset=".41" stop-color="#fff" stop-opacity=".78"/>
      <stop offset=".48" stop-color="#fff" stop-opacity=".9"/>
      <stop offset=".55" stop-color="#fff" stop-opacity=".97"/>
      <stop offset=".59" stop-color="#fff"/>
    </linearGradient>
    <mask id="mask" x="-38.87" y="-12.26" width="622.62" height="553.91" maskUnits="userSpaceOnUse">
      <rect class="cls-9" x="-38.87" y="-12.26" width="622.62" height="541.73"/>
    </mask>
    <radialGradient id="radial-gradient" cx="-4972.86" cy="8170.49" fx="-4972.86" fy="8170.49" r="272.27" gradientTransform="translate(-7896.77 -4702.04) rotate(-90)" gradientUnits="userSpaceOnUse">
      <stop offset=".75" stop-color="#a8a5db"/>
      <stop offset=".81" stop-color="#c8c6e8"/>
      <stop offset=".92" stop-color="#fff"/>
    </radialGradient>
    <radialGradient id="radial-gradient-2" cx="-4972.86" cy="8170.49" fx="-4972.86" fy="8170.49" r="224.34" xlink:href="#radial-gradient"/>
    <radialGradient id="radial-gradient-3" cx="-4972.86" cy="8170.49" fx="-4972.86" fy="8170.49" r="175.05" xlink:href="#radial-gradient"/>
    <linearGradient id="linear-gradient-2" x1="-5093.99" y1="8170.49" x2="-4851.73" y2="8170.49" gradientTransform="translate(-7896.77 -4702.04) rotate(-90)" gradientUnits="userSpaceOnUse">
      <stop offset="0" stop-color="#ce7f79"/>
      <stop offset=".19" stop-color="#fbdebe"/>
      <stop offset=".2" stop-color="#fadbbc"/>
      <stop offset=".37" stop-color="#e7a89b"/>
      <stop offset=".46" stop-color="#e0958f"/>
      <stop offset=".66" stop-color="#e9b0a9"/>
      <stop offset=".88" stop-color="#d87b72"/>
      <stop offset=".95" stop-color="#e1978e"/>
      <stop offset="1" stop-color="#d36556"/>
    </linearGradient>
  </defs>
  <g id="Layer_2-2" data-name="Layer 2">
    <g>
      <g class="cls-3">
        <g>
          <path class="cls-7" d="M461.49,67.34C409.43,22.31,347.46,0,275.57,0c-75.61,0-139.23,23.14-191.29,69.41C28.09,118.99,0,185.92,0,269.79s28.09,155.35,84.28,202.45c49.58,46.27,113.62,69.41,191.29,69.41,66.93,0,128.49-23.14,184.27-69.41,58.26-50.82,87.59-118.58,87.59-202.45s-28.51-154.93-85.94-202.45Z"/>
          <path class="cls-5" d="M428.43,103.17c-42.89-37.1-93.95-55.49-153.19-55.49-62.3,0-114.72,19.07-157.61,57.19-46.3,40.85-69.44,95.99-69.44,165.1s23.15,128,69.44,166.8c40.85,38.13,93.61,57.19,157.61,57.19,55.15,0,105.87-19.06,151.82-57.19,48-41.87,72.17-97.7,72.17-166.8s-23.49-127.65-70.81-166.8Z"/>
          <path class="cls-6" d="M394.44,140c-33.47-28.95-73.31-43.3-119.53-43.3-48.61,0-89.52,14.88-122.99,44.63-36.12,31.87-54.19,74.91-54.19,128.83s18.06,99.88,54.19,130.16c31.88,29.75,73.05,44.63,122.99,44.63,43.03,0,82.61-14.88,118.47-44.63,37.45-32.67,56.32-76.23,56.32-130.16s-18.33-99.61-55.25-130.16Z"/>
        </g>
      </g>
      <g>
        <g>
          <path class="cls-1" d="M357.7,179.81c-23.28-20.14-51-30.12-83.16-30.12-33.82,0-62.27,10.35-85.56,31.05-25.13,22.17-37.7,52.11-37.7,89.62s12.56,69.48,37.7,90.55c22.18,20.7,50.82,31.04,85.56,31.04,29.94,0,57.47-10.35,82.42-31.04,26.06-22.73,39.18-53.04,39.18-90.55s-12.75-69.3-38.44-90.55Z"/>
          <path class="cls-2" d="M274.55,387.13c-33.44,0-61.12-10.01-82.27-29.75l-.19-.17c-11.9-9.97-20.95-22.3-26.92-36.64-6.01-14.45-9.05-31.34-9.05-50.21s3.04-34.41,9.05-48.69c5.97-14.21,15.06-26.77,27.02-37.31,11.15-9.91,23.69-17.43,37.28-22.37,13.66-4.96,28.82-7.47,45.08-7.47s30.02,2.43,43.26,7.22c13.25,4.79,25.61,12.1,36.74,21.73l.08.07c12.18,10.07,21.42,22.43,27.49,36.72,6.11,14.4,9.2,31.26,9.2,50.11,0,35.93-12.61,65.16-37.48,86.87-23.93,19.84-50.61,29.9-79.29,29.9Z"/>
        </g>
        <g>
          <path class="cls-8" d="M350.57,279.58c-4.98-4.79-11.39-7.2-19.22-7.2-3.98,0-7.61.66-10.9,1.98-.4.16-.7.49-.84.9-1.81,5.17-3.65,10.32-5.51,15.34-2.48,6.74-5.2,13.72-8.08,20.72-.14.34-.16.73-.03,1.08,1.32,3.72,3.37,6.92,6.14,9.6,4.96,4.79,11.36,7.2,19.22,7.2s14.52-2.4,19.41-7.2c5.18-5.01,7.76-12.11,7.76-21.26s-2.65-16.02-7.95-21.16ZM320.68,309.44c-2.69-2.15-4.03-5.03-4.03-8.62s1.34-6.52,4.03-8.67c2.58-2.05,6.17-3.07,10.74-3.07s7.93,1.03,10.55,3.07c2.72,2.12,4.07,5,4.07,8.67s-1.32,6.5-3.98,8.62c-2.62,2.08-6.17,3.12-10.65,3.12s-8.13-1.04-10.74-3.12Z"/>
          <path class="cls-8" d="M315.82,272.34c.72,0,1.23.72.99,1.4-.09.27-.19.54-.29.82-.27.79-.56,1.57-.83,2.36-1.5,4.25-3.02,8.45-4.55,12.61-2.05,5.56-4.24,11.25-6.59,17.05-.36.9-1.79,4.44-2.09,5.14-2.58,6.26-5.07,11.91-7.47,16.98-.17.37-.54.6-.95.6h-12.48c-.41,0-.78-.23-.95-.6-2.63-5.62-5.38-11.95-8.24-18.96-2.65-6.4-5.26-13.09-7.82-20.07l-1.98-5.36c-.41-1.1-2.04-.81-2.04.36v43.57c0,.58-.47,1.05-1.05,1.05h-12.77c-.58,0-1.05-.47-1.05-1.05v-43.6c0-1.17-1.63-1.46-2.04-.36l-1.94,5.25c-2.39,6.53-5,13.22-7.81,20.07-2.9,7.1-5.68,13.47-8.33,19.1-.17.37-.54.6-.95.6h-12.49c-.41,0-.78-.23-.95-.6-2.63-5.62-5.38-11.95-8.24-18.96-2.65-6.4-5.26-13.09-7.82-20.07-2.13-5.75-4.03-11.07-5.72-15.94-.24-.68.27-1.39,1-1.39h14.81c.45,0,.86.29,1,.72l4.12,12.62c2.08,6.38,3.92,11.73,5.54,16.05.49,1.33,1.06,2.8,1.72,4.39.36.88,1.62.87,1.95-.02,1.36-3.64,3.21-8.79,5.55-15.45l6.01-17.61c.15-.43.54-.71.99-.71h42.55c.45,0,.86.29,1,.72l4.12,12.62c2.09,6.38,3.93,11.73,5.54,16.05.49,1.33,1.07,2.79,1.72,4.39.36.88,1.62.87,1.95-.02,1.36-3.64,3.21-8.79,5.56-15.45l6.01-17.61c.15-.43.54-.71.99-.71h14.29Z"/>
          <path class="cls-8" d="M239.82,239.81c-.27-7.37-3.64-14.91-8.45-19.73-6.2-6.24-14.66-7.71-22.15-7.71-4.04,0-7.81.43-10.79.77-3.57.4-6.56,1.08-8.77,1.69-.45.12-.75.53-.75,1v52.35c0,.57.46,1.03,1.03,1.03h18.84c9.79,0,17.34-2.29,22.68-6.85,5.59-4.82,8.38-11.83,8.38-21.07,0-.31,0-.82-.03-1.47ZM209.39,255.77h-4.41c-.57,0-1.03-.46-1.03-1.03v-26.91c0-.57.46-1.03,1.03-1.03l4.74-.03c9.85,0,14.77,4.81,14.77,14.44s-5.04,14.57-15.1,14.57Z"/>
          <path class="cls-8" d="M273.75,229.93l-2.2,12.2c-.11.63-.77,1-1.37.79-1.08-.38-2.04-.6-2.82-.74-1.33-.24-2.52-.31-3.46-.31s-1.67.07-2,.12c-.19.02-.36.04-.52.07-.51.08-.87.51-.87,1.03v25.09c0,.57-.46,1.04-1.04,1.04h-12.76c-.57,0-1.04-.46-1.04-1.04v-37.27c0-.43.27-.82.67-.97,3.19-1.22,6.02-1.88,8.21-2.27,1.54-.26,3.92-.67,7.01-.67.48,0,.99.01,1.5.03.65.03,3.55.17,7.26,1.03,1.03.24,1.95.49,2.72.71.51.15.81.66.72,1.18Z"/>
          <path class="cls-4" d="M279.26,252.99c-1.32-1.14-2.9-1.71-4.72-1.71-1.92,0-3.54.59-4.86,1.76-1.43,1.26-2.14,2.96-2.14,5.09s.71,3.94,2.14,5.14c1.26,1.18,2.89,1.76,4.86,1.76,1.7,0,3.26-.59,4.68-1.76,1.48-1.29,2.22-3.01,2.22-5.14s-.72-3.93-2.18-5.14Z"/>
        </g>
      </g>
    </g>
  </g>
</svg>